<svg xmlns="http://www.w3.org/2000/svg" version="1.1" xmlns:xlink="http://www.w3.org/1999/xlink" xmlns:svgjs="http://svgjs.dev/svgjs" width="1000" height="1000" viewBox="0 0 1000 1000"><rect width="1000" height="1000" fill="#000000"></rect><g transform="matrix(0.7,0,0,0.7,149.57575757575756,314.89000876699447)"><svg viewBox="0 0 396 210" data-background-color="#551e19" preserveAspectRatio="xMidYMid meet" height="530" width="1000" xmlns="http://www.w3.org/2000/svg" xmlns:xlink="http://www.w3.org/1999/xlink"><g id="tight-bounds" transform="matrix(1,0,0,1,0.2400000000000091,-0.2207596794308273)"><svg viewBox="0 0 395.52 210.44151935886165" height="210.44151935886165" width="395.52"><g><svg viewBox="0 0 395.52 210.44151935886165" height="210.44151935886165" width="395.52"><g transform="matrix(1,0,0,1,0,127.55656184298718)"><svg viewBox="0 0 395.52 82.88495751587448" height="82.88495751587448" width="395.52"><g id="textblocktransform"><svg viewBox="0 0 395.52 82.88495751587448" height="82.88495751587448" width="395.52" id="textblock"><g><svg viewBox="0 0 395.52 55.10746774788057" height="55.10746774788057" width="395.52"><g transform="matrix(1,0,0,1,0,0)"><svg width="395.52" viewBox="1.32 -35.79 264.92 36.91" height="55.10746774788057" data-palette-color="#e6b17e"><path d="M29.69-23.49L29.69-23.49Q29.69-21.12 28.98-19.29 28.27-17.46 27.04-16.09 25.81-14.72 24.15-13.77 22.49-12.82 20.59-12.22 18.7-11.62 16.67-11.34 14.65-11.06 12.7-11.04L12.7-11.04 12.7 0.34 1.32 0.34Q1.32-5.25 1.34-10.79 1.37-16.33 1.42-21.97L1.42-21.97Q1.46-24.95 1.44-27.93 1.42-30.91 1.56-33.94L1.56-33.94Q4.69-34.86 7.81-35.33 10.94-35.79 14.26-35.79L14.26-35.79Q16.14-35.79 18.02-35.49 19.9-35.18 21.62-34.52 23.34-33.86 24.82-32.87 26.29-31.88 27.37-30.52 28.44-29.15 29.06-27.4 29.69-25.66 29.69-23.49ZM18.85-22.66L18.85-22.66Q18.85-24.24 17.88-25.13 16.92-26.03 15.38-26.03L15.38-26.03Q14.87-26.03 14.32-25.94 13.77-25.85 13.28-25.73L13.28-25.73 12.99-18.6Q13.33-18.55 13.65-18.55 13.96-18.55 14.31-18.55L14.31-18.55Q15.19-18.55 16-18.85 16.82-19.14 17.46-19.69 18.09-20.24 18.47-20.98 18.85-21.73 18.85-22.66ZM31.22-33.69L44.21-34.38 41.53-1.12 31.22-0.59 31.22-33.69ZM67.79-35.6L68.23-26.81 57.05-11.72 67.84-11.72 67.7-1.37 45.92-0.49 44.94-10.06 57.69-26.66 46.02-25.78 45.92-35.6 67.79-35.6ZM92.13-35.6L92.57-26.81 81.39-11.72 92.18-11.72 92.03-1.37 70.26-0.49 69.28-10.06 82.02-26.66 70.35-25.78 70.26-35.6 92.13-35.6ZM115.83-34.96L125.36-2.1 113.25-0.54 111.78-6.05 106.22-6.05 104.99-0.54 92.54-1.76 102.26-34.28 115.83-34.96ZM107.24-13.53L110.9-13.53 109.05-22.02 107.24-13.53ZM154.06-34.81L154.85 0 142.64 0.59 142.54-10.69 136.93-10.69 136.58 0 125.65 0 126.57-34.33 138.2-33.79 137.46-16.26 142.88-16.26 142.93-35.11 154.06-34.81ZM186.36-27.15L186.36-27.15Q186.36-25.34 186.19-23.17 186.02-21 185.63-18.68 185.24-16.36 184.62-13.98 183.99-11.6 183.07-9.4 182.14-7.2 180.91-5.29 179.67-3.37 178.07-1.94 176.47-0.51 174.5 0.31 172.52 1.12 170.1 1.12L170.1 1.12Q167.27 1.12 165.18 0.21 163.1-0.71 161.61-2.26 160.12-3.81 159.16-5.87 158.21-7.93 157.68-10.24 157.14-12.55 156.93-14.95 156.72-17.36 156.72-19.58L156.72-19.58Q156.72-23 157.07-26.4 157.41-29.81 158.04-33.2L158.04-33.2 169.47-32.76Q168.81-28.93 168.33-25.06 167.86-21.19 167.86-17.29L167.86-17.29Q167.86-16.87 167.89-16.05 167.93-15.23 168.03-14.22 168.12-13.21 168.31-12.15 168.49-11.08 168.81-10.21 169.13-9.33 169.58-8.76 170.03-8.2 170.64-8.2L170.64-8.2Q171.35-8.2 171.91-8.87 172.47-9.55 172.9-10.67 173.32-11.79 173.64-13.26 173.96-14.72 174.18-16.31 174.4-17.9 174.53-19.48 174.67-21.07 174.75-22.44 174.84-23.8 174.86-24.85 174.89-25.9 174.89-26.42L174.89-26.42Q174.89-28.32 174.83-30.21 174.77-32.1 174.64-33.98L174.64-33.98 186.07-33.98Q186.36-30.62 186.36-27.15ZM187.51-34.86L214.12-34.91 213.87-24.56 206.6-24.27 204.74-1.12 194.44-0.59 194.49-23.73 187.21-23.34 187.51-34.86ZM215.17-34.86L241.78-34.91 241.53-24.56 234.26-24.27 232.4-1.12 222.1-0.59 222.15-23.73 214.87-23.34 215.17-34.86ZM243.73-35.21L266.24-35.21Q266.09-32.91 265.97-30.66 265.85-28.42 265.65-26.12L265.65-26.12 255.3-25.59 255.06-22.51 262.33-22.51 261.79-14.94 254.47-14.7 254.23-11.13 260.28-11.13 264.58-11.13Q264.43-8.45 264.27-5.8 264.11-3.15 263.99-0.49L263.99-0.49 242.95 0 243.73-35.21Z" opacity="1" transform="matrix(1,0,0,1,0,0)" fill="#ffffff" class="undefined-text-0" data-fill-palette-color="primary" id="text-0"></path></svg></g></svg></g><g transform="matrix(1,0,0,1,75.54431999999998,68.11701830392923)"><svg viewBox="0 0 244.43136 14.76793921194525" height="14.76793921194525" width="244.43136"><g transform="matrix(1,0,0,1,0,0)"><svg width="244.43136" viewBox="3.25 -38.99 882.84 53.35" height="14.76793921194525" data-palette-color="#e6b17e"><path d="M11.4-32.1L11.4-32.1 11.4-4.39Q11.4-2.42 12.21-1.51 13.01-0.61 15.26-0.2L15.26-0.2 15.04 0.39Q12.26 0 10.64 0L10.64 0Q9.2 0 7.3 0.39L7.3 0.39 7.15 0.15Q7.64-0.56 7.64-2.44L7.64-2.44 7.64-28.1Q7.64-31.57 6.85-32.65 6.05-33.74 3.34-33.74L3.34-33.74 3.25-34.45Q10.03-35.45 14.16-35.45L14.16-35.45Q16.99-35.45 19.18-35.03 21.36-34.62 23.12-33.65 24.88-32.69 25.82-30.98 26.76-29.27 26.76-26.86L26.76-26.86Q26.76-24.19 25.04-22.01 23.32-19.82 20.76-18.69 18.21-17.55 15.55-17.55L15.55-17.55Q14.5-17.55 13.99-17.65L13.99-17.65 13.99-18.51Q15.84-18.51 17.42-18.99 18.99-19.48 20.23-20.46 21.46-21.44 22.16-23.03 22.85-24.63 22.85-26.71L22.85-26.71Q22.85-30.05 21.17-32.01 19.48-33.96 15.89-33.96L15.89-33.96Q13.26-33.96 11.25-33.64L11.25-33.64Q11.4-32.91 11.4-32.1ZM34.64-2.44L34.64-18.09Q34.64-21.56 33.82-22.74 33.01-23.93 30.34-23.75L30.34-23.75 30.25-24.19Q34.27-25.39 37.64-25.39L37.64-25.39Q38.16-24.12 38.16-22.61L38.16-22.61 38.16-4.39Q38.16-2.47 39.06-1.54 39.96-0.61 42.26-0.2L42.26-0.2 42.06 0.39Q39.26 0 37.73 0 36.2 0 34.3 0.39L34.3 0.39 34.15 0.15Q34.64-0.56 34.64-2.44L34.64-2.44ZM32.15-34.45L32.15-34.45Q34.47-35.79 37.4-36.69L37.4-36.69Q37.4-34.67 38.06-32.69L38.06-32.69 37.74-32.25Q35.42-32.1 32.91-30.96L32.91-30.96Q32.3-32.64 32.15-34.45ZM45.75-18.36L47.55-24.61 47.94-24.95Q51.83-24.66 62.25-24.66L62.25-24.66 65.4-24.8 65.64-24.1 50.75-1.81 58.17-1.59Q59.59-1.59 60.87-1.87 62.15-2.15 63.22-2.76 64.28-3.37 65.08-4.31 65.89-5.25 66.35-6.54L66.35-6.54 66.96-6.25 64.55 0 64.16 0.34Q63.67 0.29 62.7 0.26 61.74 0.22 60.49 0.18 59.25 0.15 57.81 0.12 56.37 0.1 52.46 0.06 48.55 0.02 47.81 0.01 47.07 0 46.85 0L46.85 0 46.6-2.2Q48.02-3.39 51.62-8.54 55.22-13.7 61.05-22.8L61.05-22.8Q59.37-22.9 57.94-22.94 56.51-22.97 55.29-22.97L55.29-22.97Q53.39-22.97 52.06-22.8 50.73-22.63 49.73-22.11 48.73-21.58 47.94-20.61 47.16-19.63 46.36-18.04L46.36-18.04 45.75-18.36ZM71.45-18.36L73.26-24.61 73.65-24.95Q77.53-24.66 87.96-24.66L87.96-24.66 91.11-24.8 91.35-24.1 76.46-1.81 83.88-1.59Q85.3-1.59 86.58-1.87 87.86-2.15 88.92-2.76 89.98-3.37 90.79-4.31 91.59-5.25 92.06-6.54L92.06-6.54 92.67-6.25 90.25 0 89.86 0.34Q89.37 0.29 88.41 0.26 87.44 0.22 86.2 0.18 84.95 0.15 83.51 0.12 82.07 0.1 78.17 0.06 74.26 0.02 73.52 0.01 72.77 0 72.55 0L72.55 0 72.31-2.2Q73.72-3.39 77.32-8.54 80.93-13.7 86.76-22.8L86.76-22.8Q85.08-22.9 83.65-22.94 82.22-22.97 81-22.97L81-22.97Q79.09-22.97 77.76-22.8 76.43-22.63 75.43-22.11 74.43-21.58 73.65-20.61 72.87-19.63 72.06-18.04L72.06-18.04 71.45-18.36ZM115.91-17.65L115.91-2.76Q115.91-2.34 116.09-1.99 116.27-1.64 116.53-1.4 116.79-1.17 117.28-0.95 117.76-0.73 118.13-0.61 118.5-0.49 119.16-0.29L119.16-0.29 118.96 0.29Q117.4 0 115.86 0L115.86 0Q113.93 0 112.05 0.39L112.05 0.39 111.9 0.15Q112.42-0.56 112.42-2.44L112.42-2.44 112.42-4.05Q111.2-1.78 108.62-0.39 106.04 1 103.41 1L103.41 1Q100.6 1 98.88-0.45 97.16-1.9 97.16-4.76L97.16-4.76Q97.16-6.62 97.93-8.07 98.7-9.52 99.98-10.53 101.26-11.55 103.27-12.33 105.29-13.11 107.42-13.6 109.56-14.09 112.42-14.5L112.42-14.5 112.42-16.75Q112.42-23.46 107.12-23.46L107.12-23.46Q105.41-23.46 102.93-22.62 100.45-21.78 98.77-20.41L98.77-20.41 97.77-21.56Q99.89-23.24 102.81-24.34 105.73-25.44 108.27-25.44L108.27-25.44Q109.39-25.44 110.4-25.23 111.42-25.02 112.45-24.48 113.49-23.93 114.24-23.08 114.98-22.24 115.44-20.84 115.91-19.43 115.91-17.65L115.91-17.65ZM104.56-0.85L104.56-0.85Q106.68-0.85 109-2.26 111.32-3.66 112.42-5.76L112.42-5.76 112.42-13.21Q106.17-12.3 103.49-10.44 100.82-8.57 100.82-5L100.82-5Q100.82-2.83 101.75-1.84 102.68-0.85 104.56-0.85ZM140.71-5.69L140.71-5.69Q140.71-3.93 140-2.66 139.29-1.39 138.11-0.57 136.93 0.24 135.35 0.62 133.78 1 132.04 1L132.04 1Q127.84 1 124.16-0.76L124.16-0.76Q124.62-2.37 125.09-3.75 125.55-5.13 126.04-6.3L126.04-6.3 126.75-6.05Q126.53-4.98 126.53-3.99 126.53-3 126.6-2.2L126.6-2.2Q127.36-1.81 128.01-1.53 128.67-1.25 129.33-1.06 129.99-0.88 130.75-0.79 131.51-0.71 132.51-0.71L132.51-0.71Q134-0.71 134.97-0.9 135.95-1.1 136.5-1.57 137.05-2.05 137.27-2.84 137.49-3.64 137.49-4.81L137.49-4.81Q137.49-5.71 137.18-6.51 136.88-7.3 136.13-8.08 135.39-8.86 134.15-9.7 132.92-10.55 131.09-11.55L131.09-11.55Q128.14-13.31 126.62-15.05 125.11-16.8 125.11-18.8L125.11-18.8Q125.11-20.39 125.77-21.62 126.43-22.85 127.56-23.69 128.7-24.54 130.21-24.96 131.73-25.39 133.41-25.39L133.41-25.39Q134.26-25.39 135.2-25.27 136.14-25.15 137.02-24.91 137.9-24.68 138.67-24.35 139.44-24.02 140-23.61L140-23.61Q139.22-20.41 138.1-17.99L138.1-17.99 137.39-18.26Q137.44-18.97 137.46-20.01 137.49-21.04 137.49-22.46L137.49-22.46Q135.9-23.71 133.09-23.71L133.09-23.71Q131.7-23.71 130.74-23.54 129.77-23.36 129.19-22.95 128.6-22.53 128.34-21.81 128.09-21.09 128.09-20L128.09-20Q128.09-19.19 128.31-18.49 128.53-17.8 129.09-17.13 129.65-16.46 130.61-15.76 131.58-15.06 133.09-14.26L133.09-14.26Q135.46-12.96 136.94-11.99 138.42-11.01 139.26-10.07 140.1-9.13 140.4-8.11 140.71-7.08 140.71-5.69ZM165.58-36.21L165.58-21.19Q167.73-23.39 169.9-24.39 172.08-25.39 174.69-25.39L174.69-25.39Q176.89-25.39 178.73-24.38 180.57-23.36 181.77-21.7 182.97-20.04 183.63-17.96 184.28-15.87 184.28-13.65L184.28-13.65Q184.28-7.1 180.83-3.31 177.38 0.49 170.83 0.49L170.83 0.49Q168.22 0.49 165.73 0.05L165.73 0.05 165.68 0.05Q163.26 0.05 161.77 0.56L161.77 0.56 161.58 0.15Q161.9-0.32 161.98-0.89 162.07-1.46 162.07-2.95L162.07-2.95 162.07-31.69Q162.07-34.91 161.37-36.13 160.68-37.35 158.48-37.35L158.48-37.35 157.77-37.35 157.67-37.79Q161.7-38.99 165.07-38.99L165.07-38.99Q165.58-37.72 165.58-36.21L165.58-36.21ZM165.58-19.24L165.58-19.24 165.58-2.81Q166.75-2.17 168.7-1.76 170.64-1.34 172.59-1.34L172.59-1.34Q174.49-1.34 175.9-1.87 177.3-2.39 178.16-3.28 179.01-4.17 179.54-5.62 180.06-7.06 180.24-8.64 180.43-10.23 180.43-12.35L180.43-12.35Q180.43-17.92 178.55-20.79 176.67-23.66 173.57-23.66L173.57-23.66Q171.64-23.66 169.55-22.52 167.46-21.39 165.58-19.24ZM192.41-2.44L192.41-18.09Q192.41-21.56 191.59-22.74 190.78-23.93 188.11-23.75L188.11-23.75 188.02-24.19Q192.05-25.39 195.41-25.39L195.41-25.39Q195.93-24.12 195.93-22.61L195.93-22.61 195.93-4.39Q195.93-2.47 196.83-1.54 197.73-0.61 200.03-0.2L200.03-0.2 199.83 0.39Q197.03 0 195.5 0 193.97 0 192.07 0.39L192.07 0.39 191.92 0.15Q192.41-0.56 192.41-2.44L192.41-2.44ZM189.92-34.45L189.92-34.45Q192.24-35.79 195.17-36.69L195.17-36.69Q195.17-34.67 195.83-32.69L195.83-32.69 195.51-32.25Q193.19-32.1 190.68-30.96L190.68-30.96Q190.07-32.64 189.92-34.45ZM215.92-25.39L215.92-25.39Q221.54-25.39 224.73-21.95 227.93-18.51 227.93-12.35L227.93-12.35Q227.93-8.79 226.3-5.71 224.66-2.64 221.85-0.82 219.04 1 215.77 1L215.77 1Q210.13 1 206.95-2.4 203.76-5.81 203.76-12.06L203.76-12.06Q203.76-15.77 205.4-18.84 207.03-21.9 209.83-23.65 212.62-25.39 215.92-25.39ZM215.43-23.71L215.43-23.71Q213.5-23.71 212.09-23.14 210.67-22.58 209.82-21.63 208.96-20.68 208.45-19.21 207.94-17.75 207.75-16.21 207.57-14.67 207.57-12.65L207.57-12.65Q207.57-9.42 208.34-7.02 209.11-4.61 210.4-3.28 211.7-1.95 213.16-1.33 214.63-0.71 216.26-0.71L216.26-0.71Q218.17-0.71 219.59-1.31 221.02-1.9 221.88-2.87 222.73-3.83 223.24-5.31 223.76-6.79 223.94-8.3 224.12-9.81 224.12-11.74L224.12-11.74Q224.12-14.45 223.61-16.58 223.1-18.7 222.26-20.02 221.41-21.34 220.25-22.19 219.09-23.05 217.92-23.38 216.75-23.71 215.43-23.71ZM268.16-24.66L257.05 1.25 255.34 0.76 247.51-19.8Q247.19-20.73 246.85-21.39 246.51-22.05 245.94-22.44 245.38-22.83 244.49-22.92 243.6-23.02 242.21-22.85L242.21-22.85 241.96-23.34Q246.07-25.39 249.31-25.39L249.31-25.39 255.76-8.15Q256.59-5.35 256.91-3.66L256.91-3.66 257.3-3.66Q257.39-3.98 257.66-4.87 257.93-5.76 258.15-6.38 258.37-7.01 258.62-7.59L258.62-7.59 265.01-22.34Q265.48-23.46 263.64-23.78L263.64-23.78Q262.64-23.93 261.11-23.8L261.11-23.8 260.96-24.39Q264.06-25.05 267.84-25.15L267.84-25.15 268.16-24.66ZM271.75-11.89L271.75-11.89Q271.75-14.48 272.6-16.91 273.46-19.34 275.04-21.23 276.63-23.12 278.89-24.26 281.15-25.39 283.95-25.39L283.95-25.39Q285.71-25.39 287.27-24.79 288.84-24.19 290-22.94 291.16-21.68 291.83-19.71 292.5-17.75 292.5-15.04L292.5-15.04 291.55-14.16 275.6-14.16Q275.56-13.75 275.56-13.35 275.56-12.96 275.56-12.57L275.56-12.57Q275.56-9.91 276.18-7.74 276.8-5.57 277.86-4.02 278.93-2.47 280.37-1.61 281.81-0.76 283.42-0.76L283.42-0.76Q284.44-0.76 285.5-0.92 286.57-1.07 287.58-1.42 288.59-1.76 289.55-2.29 290.5-2.83 291.3-3.59L291.3-3.59 292.3-2.54Q290.38-0.63 288.1 0.18 285.83 1 282.86 1L282.86 1Q280.51 1 278.47 0.1 276.43-0.81 274.95-2.49 273.46-4.17 272.6-6.56 271.75-8.94 271.75-11.89ZM283.42-23.71L283.42-23.71Q279.63-23.71 277.88-21.74 276.12-19.78 275.75-16.09L275.75-16.09 289.35-16.09Q289.15-20.09 287.56-21.9 285.96-23.71 283.42-23.71ZM319.86 6.2L319.86 6.2Q319.86 8.64 318.05 10.53 316.23 12.43 313.35 13.39 310.47 14.36 307.12 14.36L307.12 14.36Q304.56 14.36 302.51 13.67 300.46 12.99 299.11 11.4 297.77 9.81 297.77 7.54L297.77 7.54Q297.77 5.18 299.85 3.15 301.92 1.12 305.31-0.29L305.31-0.29Q302.24-0.98 300.9-1.79 299.55-2.61 299.55-4.35L299.55-4.35Q299.55-5.88 300.5-6.82 301.46-7.76 303.75-8.35L303.75-8.35Q301.07-9.18 299.56-11.21 298.06-13.23 298.06-16.46L298.06-16.46Q298.06-18.8 299.44-20.87 300.82-22.95 303.08-24.17 305.34-25.39 307.8-25.39L307.8-25.39Q310.64-25.39 312.81-24.51L312.81-24.51 320.82-25.39 321.01-24.56 319.25-22.75 314.91-23.14Q317.42-20.9 317.42-16.65L317.42-16.65Q317.42-14.5 316.13-12.48 314.84-10.45 312.57-9.16 310.29-7.86 307.71-7.86L307.71-7.86Q304.19-7.25 303.2-6.79 302.21-6.32 302.21-5.3L302.21-5.3Q302.21-4.69 303.56-4.11 304.9-3.54 308.85-2.54L308.85-2.54Q310.66-2.1 311.91-1.75 313.15-1.39 314.4-0.94 315.64-0.49 316.43-0.02 317.23 0.44 317.95 1.06 318.67 1.68 319.05 2.43 319.43 3.17 319.65 4.1 319.86 5.03 319.86 6.2ZM308.61 0.34L308.61 0.34 307.61 0.1Q304.53 1.25 302.75 3.2 300.97 5.15 300.97 7.15L300.97 7.15Q300.97 8.57 301.74 9.66 302.51 10.74 303.8 11.35 305.09 11.96 306.56 12.26 308.02 12.55 309.61 12.55L309.61 12.55Q316.76 12.55 316.76 6.96L316.76 6.96Q316.76 4.25 314.73 2.73 312.69 1.22 308.61 0.34ZM306.8-23.66L306.8-23.66Q303.73-23.66 302.54-22.08 301.36-20.51 301.36-16.85L301.36-16.85Q301.36-15.14 301.91-13.81 302.46-12.48 303.29-11.71 304.12-10.94 305.23-10.44 306.34-9.94 307.3-9.77 308.27-9.59 309.22-9.59L309.22-9.59Q311.71-9.59 312.91-11.38 314.1-13.16 314.1-16.26L314.1-16.26Q314.1-18.04 313.55-19.42 313-20.8 312.21-21.57 311.42-22.34 310.37-22.84 309.32-23.34 308.46-23.5 307.61-23.66 306.8-23.66ZM343.25-17.65L343.25-2.76Q343.25-2.34 343.43-1.99 343.62-1.64 343.87-1.4 344.13-1.17 344.62-0.95 345.11-0.73 345.47-0.61 345.84-0.49 346.5-0.29L346.5-0.29 346.3 0.29Q344.74 0 343.2 0L343.2 0Q341.27 0 339.39 0.39L339.39 0.39 339.25 0.15Q339.76-0.56 339.76-2.44L339.76-2.44 339.76-4.05Q338.54-1.78 335.96-0.39 333.39 1 330.75 1L330.75 1Q327.94 1 326.22-0.45 324.5-1.9 324.5-4.76L324.5-4.76Q324.5-6.62 325.27-8.07 326.04-9.52 327.32-10.53 328.6-11.55 330.62-12.33 332.63-13.11 334.77-13.6 336.9-14.09 339.76-14.5L339.76-14.5 339.76-16.75Q339.76-23.46 334.46-23.46L334.46-23.46Q332.75-23.46 330.28-22.62 327.8-21.78 326.11-20.41L326.11-20.41 325.11-21.56Q327.24-23.24 330.15-24.34 333.07-25.44 335.61-25.44L335.61-25.44Q336.73-25.44 337.75-25.23 338.76-25.02 339.8-24.48 340.83-23.93 341.58-23.08 342.32-22.24 342.79-20.84 343.25-19.43 343.25-17.65L343.25-17.65ZM331.9-0.85L331.9-0.85Q334.02-0.85 336.34-2.26 338.66-3.66 339.76-5.76L339.76-5.76 339.76-13.21Q333.51-12.3 330.84-10.44 328.16-8.57 328.16-5L328.16-5Q328.16-2.83 329.09-1.84 330.02-0.85 331.9-0.85ZM354.38-2.44L354.38-18.09Q354.38-19.73 354.22-20.83 354.06-21.92 353.66-22.58 353.26-23.24 352.55-23.51 351.84-23.78 351.05-23.78 350.26-23.78 350.08-23.75L350.08-23.75 349.99-24.19Q353.97-25.39 357.38-25.39L357.38-25.39Q357.9-24.1 357.9-22.61L357.9-22.61 357.9-21.9Q359.31-22.85 360.51-23.56 361.71-24.27 362.87-24.76 364.03-25.24 365.25-25.49 366.47-25.73 367.93-25.73L367.93-25.73Q369.25-25.73 370.56-25.39 371.86-25.05 372.9-24.17 373.94-23.29 374.58-21.78 375.23-20.26 375.23-17.94L375.23-17.94 375.23-2.76Q375.23-2.17 375.51-1.78 375.79-1.39 376.24-1.12 376.7-0.85 377.28-0.67 377.87-0.49 378.5-0.29L378.5-0.29 378.28 0.29Q376.92 0 374.65 0L374.65 0Q373.25 0 371.4 0.39L371.4 0.39 371.25 0.15Q371.74-0.56 371.74-2.44L371.74-2.44 371.74-17.04Q371.74-19.09 371.35-20.4 370.96-21.7 370.29-22.45 369.62-23.19 368.72-23.49 367.83-23.78 366.83-23.78L366.83-23.78Q365.61-23.78 364.55-23.56 363.49-23.34 362.43-22.89 361.36-22.44 360.27-21.77 359.17-21.09 357.9-20.19L357.9-20.19 357.9-3.34Q357.9-2.56 358.02-2.09 358.14-1.61 358.53-1.29 358.92-0.98 359.63-0.73 360.34-0.49 361.49-0.2L361.49-0.2 361.29 0.39Q359.87 0.2 358.89 0.1 357.9 0 357.29 0L357.29 0Q355.9 0 354.04 0.39L354.04 0.39 353.89 0.15Q354.38-0.56 354.38-2.44L354.38-2.44ZM414.39-25L414.39-31.69Q414.39-33.35 414.24-34.33 414.09-35.3 413.64-36.04 413.19-36.77 412.34-37.06 411.48-37.35 410.09-37.35L410.09-37.35 409.99-37.79Q414.02-38.99 417.39-38.99L417.39-38.99Q417.88-37.7 417.88-36.21L417.88-36.21 417.88-4.39Q417.88-2.47 418.78-1.54 419.68-0.61 421.98-0.2L421.98-0.2 421.78 0.39Q418.98 0 417.29 0L417.29 0Q415.97 0 414.02 0.39L414.02 0.39 413.87 0.15Q414.39-0.56 414.39-2.44L414.39-2.44 414.39-2.66Q410.8 1 406.89 1L406.89 1Q404.82 1 402.9 0.12 400.98-0.76 399.49-2.31 398-3.86 397.11-6.19 396.22-8.52 396.22-11.25L396.22-11.25Q396.22-17.8 399.68-21.59 403.13-25.39 409.67-25.39L409.67-25.39Q411.73-25.39 414.39-25L414.39-25ZM414.39-4.44L414.39-22.29Q411.6-23.56 407.89-23.56L407.89-23.56Q405.99-23.56 404.6-23.03 403.2-22.51 402.34-21.61 401.47-20.7 400.96-19.27 400.45-17.85 400.26-16.26 400.08-14.67 400.08-12.55L400.08-12.55Q400.08-6.96 402.15-4.03 404.23-1.1 407.53-1.1L407.53-1.1Q411.11-1.1 414.39-4.44L414.39-4.44ZM427.71-23.95L427.71-23.95 426.81-33.96Q426.74-35.16 426.08-35.21L426.08-35.21 425.98-35.79Q427.86-36.33 430.08-36.4L430.08-36.4 429.18-24.39Q428.74-24.02 427.71-23.95ZM438.45-2.44L438.45-18.09Q438.45-21.56 437.64-22.74 436.82-23.93 434.16-23.75L434.16-23.75 434.06-24.19Q438.09-25.39 441.46-25.39L441.46-25.39Q441.97-24.12 441.97-22.61L441.97-22.61 441.97-4.39Q441.97-2.47 442.87-1.54 443.78-0.61 446.07-0.2L446.07-0.2 445.88 0.39Q443.07 0 441.54 0 440.02 0 438.11 0.39L438.11 0.39 437.97 0.15Q438.45-0.56 438.45-2.44L438.45-2.44ZM435.96-34.45L435.96-34.45Q438.28-35.79 441.21-36.69L441.21-36.69Q441.21-34.67 441.87-32.69L441.87-32.69 441.55-32.25Q439.23-32.1 436.72-30.96L436.72-30.96Q436.11-32.64 435.96-34.45ZM452.95-2.44L452.95-18.09Q452.95-19.73 452.79-20.83 452.64-21.92 452.23-22.58 451.83-23.24 451.12-23.51 450.41-23.78 449.62-23.78 448.83-23.78 448.66-23.75L448.66-23.75 448.56-24.19Q452.54-25.39 455.96-25.39L455.96-25.39Q456.47-24.1 456.47-22.61L456.47-22.61 456.47-21.9Q457.88-22.85 459.08-23.56 460.28-24.27 461.44-24.76 462.6-25.24 463.82-25.49 465.04-25.73 466.5-25.73L466.5-25.73Q467.82-25.73 469.13-25.39 470.43-25.05 471.47-24.17 472.51-23.29 473.16-21.78 473.8-20.26 473.8-17.94L473.8-17.94 473.8-2.76Q473.8-2.17 474.08-1.78 474.36-1.39 474.82-1.12 475.27-0.85 475.85-0.67 476.44-0.49 477.07-0.29L477.07-0.29 476.85 0.29Q475.49 0 473.22 0L473.22 0Q471.83 0 469.97 0.39L469.97 0.39 469.82 0.15Q470.31-0.56 470.31-2.44L470.31-2.44 470.31-17.04Q470.31-19.09 469.92-20.4 469.53-21.7 468.86-22.45 468.19-23.19 467.3-23.49 466.41-23.78 465.4-23.78L465.4-23.78Q464.18-23.78 463.12-23.56 462.06-23.34 461-22.89 459.94-22.44 458.84-21.77 457.74-21.09 456.47-20.19L456.47-20.19 456.47-3.34Q456.47-2.56 456.59-2.09 456.71-1.61 457.1-1.29 457.49-0.98 458.2-0.73 458.91-0.49 460.06-0.2L460.06-0.2 459.86 0.39Q458.45 0.2 457.46 0.1 456.47 0 455.86 0L455.86 0Q454.47 0 452.61 0.39L452.61 0.39 452.46 0.15Q452.95-0.56 452.95-2.44L452.95-2.44ZM498.63-5.69L498.63-5.69Q498.63-3.93 497.92-2.66 497.21-1.39 496.03-0.57 494.84 0.24 493.27 0.62 491.7 1 489.96 1L489.96 1Q485.76 1 482.08-0.76L482.08-0.76Q482.54-2.37 483-3.75 483.47-5.13 483.96-6.3L483.96-6.3 484.66-6.05Q484.44-4.98 484.44-3.99 484.44-3 484.52-2.2L484.52-2.2Q485.27-1.81 485.93-1.53 486.59-1.25 487.25-1.06 487.91-0.88 488.67-0.79 489.43-0.71 490.43-0.71L490.43-0.71Q491.92-0.71 492.89-0.9 493.87-1.1 494.42-1.57 494.97-2.05 495.19-2.84 495.41-3.64 495.41-4.81L495.41-4.81Q495.41-5.71 495.1-6.51 494.8-7.3 494.05-8.08 493.31-8.86 492.07-9.7 490.84-10.55 489.01-11.55L489.01-11.55Q486.06-13.31 484.54-15.05 483.03-16.8 483.03-18.8L483.03-18.8Q483.03-20.39 483.69-21.62 484.35-22.85 485.48-23.69 486.62-24.54 488.13-24.96 489.64-25.39 491.33-25.39L491.33-25.39Q492.18-25.39 493.12-25.27 494.06-25.15 494.94-24.91 495.82-24.68 496.59-24.35 497.36-24.02 497.92-23.61L497.92-23.61Q497.14-20.41 496.02-17.99L496.02-17.99 495.31-18.26Q495.36-18.97 495.38-20.01 495.41-21.04 495.41-22.46L495.41-22.46Q493.82-23.71 491.01-23.71L491.01-23.71Q489.62-23.71 488.66-23.54 487.69-23.36 487.11-22.95 486.52-22.53 486.26-21.81 486.01-21.09 486.01-20L486.01-20Q486.01-19.19 486.23-18.49 486.45-17.8 487.01-17.13 487.57-16.46 488.53-15.76 489.5-15.06 491.01-14.26L491.01-14.26Q493.38-12.96 494.86-11.99 496.33-11.01 497.18-10.07 498.02-9.13 498.32-8.11 498.63-7.08 498.63-5.69ZM510.52 0.49L510.52 9.5Q510.52 11.45 511.42 12.37 512.32 13.28 514.62 13.7L514.62 13.7 514.42 14.31Q511.71 13.89 509.91 13.89L509.91 13.89Q508.51 13.89 506.66 14.31L506.66 14.31 506.51 14.04Q507 13.33 507 11.45L507 11.45 507-18.09Q507-21.56 506.18-22.74 505.36-23.93 502.7-23.75L502.7-23.75 502.61-24.19Q506.63-25.39 510-25.39L510-25.39Q510.52-24.12 510.52-22.61L510.52-22.61 510.52-21.19Q512.66-23.39 514.84-24.39 517.01-25.39 519.62-25.39L519.62-25.39Q521.82-25.39 523.66-24.38 525.51-23.36 526.7-21.7 527.9-20.04 528.56-17.96 529.22-15.87 529.22-13.65L529.22-13.65Q529.22-7.06 525.74-3.03 522.26 1 515.77 1L515.77 1Q512.81 1 510.52 0.49L510.52 0.49ZM510.52-19.24L510.52-19.24 510.52-2.29Q511.66-1.66 513.62-1.26 515.57-0.85 517.52-0.85L517.52-0.85Q519.43-0.85 520.83-1.43 522.24-2 523.09-2.97 523.94-3.93 524.47-5.44 524.99-6.96 525.18-8.58 525.36-10.21 525.36-12.35L525.36-12.35Q525.36-17.92 523.48-20.79 521.6-23.66 518.5-23.66L518.5-23.66Q516.57-23.66 514.48-22.52 512.4-21.39 510.52-19.24ZM537.34-2.44L537.34-18.09Q537.34-21.56 536.53-22.74 535.71-23.93 533.05-23.75L533.05-23.75 532.95-24.19Q536.98-25.39 540.35-25.39L540.35-25.39Q540.86-24.12 540.86-22.61L540.86-22.61 540.86-4.39Q540.86-2.47 541.76-1.54 542.67-0.61 544.96-0.2L544.96-0.2 544.77 0.39Q541.96 0 540.43 0 538.91 0 537 0.39L537 0.39 536.86 0.15Q537.34-0.56 537.34-2.44L537.34-2.44ZM534.85-34.45L534.85-34.45Q537.17-35.79 540.1-36.69L540.1-36.69Q540.1-34.67 540.76-32.69L540.76-32.69 540.45-32.25Q538.13-32.1 535.61-30.96L535.61-30.96Q535-32.64 534.85-34.45ZM551.84-2.44L551.84-18.09Q551.84-19.73 551.69-20.83 551.53-21.92 551.12-22.58 550.72-23.24 550.01-23.51 549.31-23.78 547.55-23.75L547.55-23.75 547.45-24.19Q551.43-25.39 554.85-25.39L554.85-25.39Q555.36-24.1 555.36-22.61L555.36-22.61 555.36-19.6 555.46-19.51Q556.48-20.92 557.42-22.02 558.36-23.12 559.34-23.85 560.32-24.58 561.39-24.96 562.46-25.34 563.78-25.34L563.78-25.34Q564.61-25.34 565.61-25.2L565.61-25.2 564.2-19.24 563.29-19.51Q563.29-19.87 563.25-20.51 563.2-21.14 563.11-21.77 563.03-22.39 562.89-22.84 562.76-23.29 562.59-23.29L562.59-23.29Q561.88-23.29 561.16-22.99 560.44-22.68 559.58-22 558.73-21.31 557.7-20.21 556.68-19.12 555.36-17.55L555.36-17.55 555.36-3.34Q555.36-2.56 555.48-2.09 555.6-1.61 555.99-1.29 556.39-0.98 557.09-0.73 557.8-0.49 558.95-0.2L558.95-0.2 558.75 0.39Q557.34 0.2 556.35 0.1 555.36 0 554.75 0L554.75 0Q553.36 0 551.5 0.39L551.5 0.39 551.36 0.15Q551.84-0.56 551.84-2.44L551.84-2.44ZM587.61-17.65L587.61-2.76Q587.61-2.34 587.79-1.99 587.97-1.64 588.23-1.4 588.49-1.17 588.98-0.95 589.46-0.73 589.83-0.61 590.2-0.49 590.86-0.29L590.86-0.29 590.66 0.29Q589.1 0 587.56 0L587.56 0Q585.63 0 583.75 0.39L583.75 0.39 583.6 0.15Q584.12-0.56 584.12-2.44L584.12-2.44 584.12-4.05Q582.9-1.78 580.32-0.39 577.75 1 575.11 1L575.11 1Q572.3 1 570.58-0.45 568.86-1.9 568.86-4.76L568.86-4.76Q568.86-6.62 569.63-8.07 570.4-9.52 571.68-10.53 572.96-11.55 574.97-12.33 576.99-13.11 579.12-13.6 581.26-14.09 584.12-14.5L584.12-14.5 584.12-16.75Q584.12-23.46 578.82-23.46L578.82-23.46Q577.11-23.46 574.63-22.62 572.15-21.78 570.47-20.41L570.47-20.41 569.47-21.56Q571.59-23.24 574.51-24.34 577.43-25.44 579.97-25.44L579.97-25.44Q581.09-25.44 582.1-25.23 583.12-25.02 584.15-24.48 585.19-23.93 585.94-23.08 586.68-22.24 587.14-20.84 587.61-19.43 587.61-17.65L587.61-17.65ZM576.26-0.85L576.26-0.85Q578.38-0.85 580.7-2.26 583.02-3.66 584.12-5.76L584.12-5.76 584.12-13.21Q577.87-12.3 575.19-10.44 572.52-8.57 572.52-5L572.52-5Q572.52-2.83 573.45-1.84 574.38-0.85 576.26-0.85ZM602.5-22.61L602.5-6.74Q602.5-3.42 603.23-2.16 603.96-0.9 605.6-0.9L605.6-0.9Q607.38-0.9 609.94-2.25L609.94-2.25 610.7-1.2Q606.67 1 604.11 1L604.11 1Q602.74 1 601.89 0.76 601.03 0.51 600.33-0.2 599.62-0.9 599.31-2.28 599.01-3.66 599.01-5.86L599.01-5.86 599.01-22.41 595.35-22.19 595.35-23.75Q597.27-24.17 599.01-24.29L599.01-24.29 599.01-27.76Q601.08-28.93 602.4-31.1L602.4-31.1 603.16-30.81Q602.74-29.83 602.62-28.6 602.5-27.37 602.5-24.44L602.5-24.44 610.9-24.44 610.9-23.58Q609.87-23.17 608.82-22.89 607.77-22.61 606.65-22.61L606.65-22.61 602.5-22.61ZM617.78-2.44L617.78-18.09Q617.78-21.56 616.96-22.74 616.14-23.93 613.48-23.75L613.48-23.75 613.38-24.19Q617.41-25.39 620.78-25.39L620.78-25.39Q621.29-24.12 621.29-22.61L621.29-22.61 621.29-4.39Q621.29-2.47 622.2-1.54 623.1-0.61 625.4-0.2L625.4-0.2 625.2 0.39Q622.39 0 620.87 0 619.34 0 617.44 0.39L617.44 0.39 617.29 0.15Q617.78-0.56 617.78-2.44L617.78-2.44ZM615.29-34.45L615.29-34.45Q617.61-35.79 620.54-36.69L620.54-36.69Q620.54-34.67 621.2-32.69L621.2-32.69 620.88-32.25Q618.56-32.1 616.05-30.96L616.05-30.96Q615.44-32.64 615.29-34.45ZM641.29-25.39L641.29-25.39Q646.9-25.39 650.1-21.95 653.3-18.51 653.3-12.35L653.3-12.35Q653.3-8.79 651.66-5.71 650.03-2.64 647.22-0.82 644.41 1 641.14 1L641.14 1Q635.5 1 632.32-2.4 629.13-5.81 629.13-12.06L629.13-12.06Q629.13-15.77 630.76-18.84 632.4-21.9 635.2-23.65 637.99-25.39 641.29-25.39ZM640.8-23.71L640.8-23.71Q638.87-23.71 637.45-23.14 636.04-22.58 635.18-21.63 634.33-20.68 633.82-19.21 633.3-17.75 633.12-16.21 632.94-14.67 632.94-12.65L632.94-12.65Q632.94-9.42 633.71-7.02 634.48-4.61 635.77-3.28 637.06-1.95 638.53-1.33 639.99-0.71 641.63-0.71L641.63-0.71Q643.53-0.71 644.96-1.31 646.39-1.9 647.24-2.87 648.1-3.83 648.61-5.31 649.12-6.79 649.31-8.3 649.49-9.81 649.49-11.74L649.49-11.74Q649.49-14.45 648.98-16.58 648.47-18.7 647.62-20.02 646.78-21.34 645.62-22.19 644.46-23.05 643.29-23.38 642.12-23.71 640.8-23.71ZM661.43-2.44L661.43-18.09Q661.43-19.73 661.27-20.83 661.11-21.92 660.71-22.58 660.3-23.24 659.6-23.51 658.89-23.78 658.09-23.78 657.3-23.78 657.13-23.75L657.13-23.75 657.03-24.19Q661.01-25.39 664.43-25.39L664.43-25.39Q664.94-24.1 664.94-22.61L664.94-22.61 664.94-21.9Q666.36-22.85 667.55-23.56 668.75-24.27 669.91-24.76 671.07-25.24 672.29-25.49 673.51-25.73 674.98-25.73L674.98-25.73Q676.29-25.73 677.6-25.39 678.91-25.05 679.94-24.17 680.98-23.29 681.63-21.78 682.28-20.26 682.28-17.94L682.28-17.94 682.28-2.76Q682.28-2.17 682.56-1.78 682.84-1.39 683.29-1.12 683.74-0.85 684.33-0.67 684.91-0.49 685.55-0.29L685.55-0.29 685.33 0.29Q683.96 0 681.69 0L681.69 0Q680.3 0 678.44 0.39L678.44 0.39 678.3 0.15Q678.78-0.56 678.78-2.44L678.78-2.44 678.78-17.04Q678.78-19.09 678.39-20.4 678-21.7 677.33-22.45 676.66-23.19 675.77-23.49 674.88-23.78 673.88-23.78L673.88-23.78Q672.66-23.78 671.59-23.56 670.53-23.34 669.47-22.89 668.41-22.44 667.31-21.77 666.21-21.09 664.94-20.19L664.94-20.19 664.94-3.34Q664.94-2.56 665.06-2.09 665.19-1.61 665.58-1.29 665.97-0.98 666.68-0.73 667.38-0.49 668.53-0.2L668.53-0.2 668.34 0.39Q666.92 0.2 665.93 0.1 664.94 0 664.33 0L664.33 0Q662.94 0 661.08 0.39L661.08 0.39 660.94 0.15Q661.43-0.56 661.43-2.44L661.43-2.44ZM706.42-2.44L706.42-31.69Q706.42-35.16 705.6-36.34 704.78-37.52 702.12-37.35L702.12-37.35 702.02-37.79Q706.05-38.99 709.42-38.99L709.42-38.99Q709.93-37.72 709.93-36.21L709.93-36.21 709.93-4.39Q709.93-2.47 710.84-1.54 711.74-0.61 714.03-0.2L714.03-0.2 713.84 0.39Q711.03 0 709.32 0L709.32 0Q707.98 0 706.07 0.39L706.07 0.39 705.93 0.15Q706.42-0.56 706.42-2.44L706.42-2.44ZM720.92-1.15L720.92-1.15 711.89-13.04 711.89-13.6 720.92-22.71Q721.6-23.46 720.41-23.85L720.41-23.85Q719.33-24.22 717.33-24.05L717.33-24.05 717.18-24.66Q720.31-25.29 724.43-25.39L724.43-25.39 724.82-24.66 714.67-14.5Q724.14-2.61 725.24-1.82 726.34-1.03 727.97-0.66L727.97-0.66 727.93 0.1Q723.92-0.2 721.87 0.39L721.87 0.39 721.53 0.2Q721.58-0.34 720.92-1.15ZM734.12-2.44L734.12-18.09Q734.12-21.56 733.31-22.74 732.49-23.93 729.83-23.75L729.83-23.75 729.73-24.19Q733.76-25.39 737.13-25.39L737.13-25.39Q737.64-24.12 737.64-22.61L737.64-22.61 737.64-4.39Q737.64-2.47 738.54-1.54 739.45-0.61 741.74-0.2L741.74-0.2 741.55 0.39Q738.74 0 737.21 0 735.69 0 733.78 0.39L733.78 0.39 733.64 0.15Q734.12-0.56 734.12-2.44L734.12-2.44ZM731.63-34.45L731.63-34.45Q733.95-35.79 736.88-36.69L736.88-36.69Q736.88-34.67 737.54-32.69L737.54-32.69 737.22-32.25Q734.91-32.1 732.39-30.96L732.39-30.96Q731.78-32.64 731.63-34.45ZM748.62-2.44L748.62-18.09Q748.62-19.73 748.46-20.83 748.31-21.92 747.9-22.58 747.5-23.24 746.79-23.51 746.08-23.78 744.33-23.75L744.33-23.75 744.23-24.19Q748.21-25.39 751.63-25.39L751.63-25.39Q752.14-24.1 752.14-22.61L752.14-22.61 752.14-19.6 752.24-19.51Q753.26-20.92 754.2-22.02 755.14-23.12 756.12-23.85 757.1-24.58 758.17-24.96 759.24-25.34 760.56-25.34L760.56-25.34Q761.39-25.34 762.39-25.2L762.39-25.2 760.98-19.24 760.07-19.51Q760.07-19.87 760.02-20.51 759.98-21.14 759.89-21.77 759.81-22.39 759.67-22.84 759.54-23.29 759.37-23.29L759.37-23.29Q758.66-23.29 757.94-22.99 757.22-22.68 756.36-22 755.51-21.31 754.48-20.21 753.46-19.12 752.14-17.55L752.14-17.55 752.14-3.34Q752.14-2.56 752.26-2.09 752.38-1.61 752.77-1.29 753.16-0.98 753.87-0.73 754.58-0.49 755.73-0.2L755.73-0.2 755.53 0.39Q754.12 0.2 753.13 0.1 752.14 0 751.53 0L751.53 0Q750.14 0 748.28 0.39L748.28 0.39 748.14 0.15Q748.62-0.56 748.62-2.44L748.62-2.44ZM788.25 6.2L788.25 6.2Q788.25 8.64 786.43 10.53 784.61 12.43 781.73 13.39 778.85 14.36 775.5 14.36L775.5 14.36Q772.94 14.36 770.89 13.67 768.84 12.99 767.49 11.4 766.15 9.81 766.15 7.54L766.15 7.54Q766.15 5.18 768.23 3.15 770.3 1.12 773.69-0.29L773.69-0.29Q770.62-0.98 769.28-1.79 767.93-2.61 767.93-4.35L767.93-4.35Q767.93-5.88 768.88-6.82 769.84-7.76 772.13-8.35L772.13-8.35Q769.45-9.18 767.94-11.21 766.44-13.23 766.44-16.46L766.44-16.46Q766.44-18.8 767.82-20.87 769.2-22.95 771.46-24.17 773.72-25.39 776.18-25.39L776.18-25.39Q779.02-25.39 781.19-24.51L781.19-24.51 789.2-25.39 789.39-24.56 787.63-22.75 783.29-23.14Q785.8-20.9 785.8-16.65L785.8-16.65Q785.8-14.5 784.51-12.48 783.22-10.45 780.95-9.16 778.67-7.86 776.09-7.86L776.09-7.86Q772.57-7.25 771.58-6.79 770.59-6.32 770.59-5.3L770.59-5.3Q770.59-4.69 771.94-4.11 773.28-3.54 777.23-2.54L777.23-2.54Q779.04-2.1 780.29-1.75 781.53-1.39 782.78-0.94 784.02-0.49 784.81-0.02 785.61 0.44 786.33 1.06 787.05 1.68 787.43 2.43 787.81 3.17 788.03 4.1 788.25 5.03 788.25 6.2ZM776.99 0.34L776.99 0.34 775.99 0.1Q772.91 1.25 771.13 3.2 769.35 5.15 769.35 7.15L769.35 7.15Q769.35 8.57 770.12 9.66 770.89 10.74 772.18 11.35 773.47 11.96 774.94 12.26 776.4 12.55 777.99 12.55L777.99 12.55Q785.14 12.55 785.14 6.96L785.14 6.96Q785.14 4.25 783.11 2.73 781.07 1.22 776.99 0.34ZM775.18-23.66L775.18-23.66Q772.11-23.66 770.92-22.08 769.74-20.51 769.74-16.85L769.74-16.85Q769.74-15.14 770.29-13.81 770.84-12.48 771.67-11.71 772.5-10.94 773.61-10.44 774.72-9.94 775.68-9.77 776.65-9.59 777.6-9.59L777.6-9.59Q780.09-9.59 781.29-11.38 782.48-13.16 782.48-16.26L782.48-16.26Q782.48-18.04 781.93-19.42 781.38-20.8 780.59-21.57 779.8-22.34 778.75-22.84 777.7-23.34 776.84-23.5 775.99-23.66 775.18-23.66ZM813.63-2.44L813.63-17.04Q813.63-19.09 813.24-20.4 812.85-21.7 812.18-22.45 811.51-23.19 810.62-23.49 809.73-23.78 808.73-23.78L808.73-23.78Q807.51-23.78 806.44-23.56 805.38-23.34 804.32-22.89 803.26-22.44 802.16-21.77 801.06-21.09 799.79-20.19L799.79-20.19 799.79-3.34Q799.79-2.56 799.91-2.09 800.03-1.61 800.43-1.29 800.82-0.98 801.52-0.73 802.23-0.49 803.38-0.2L803.38-0.2 803.18 0.39Q801.77 0.2 800.78 0.1 799.79 0 798.79 0 797.79 0 795.93 0.39L795.93 0.39 795.79 0.15Q796.27-0.56 796.27-2.44L796.27-2.44 796.27-31.69Q796.27-33.33 796.12-34.42 795.96-35.52 795.55-36.18 795.15-36.84 794.44-37.11 793.74-37.38 792.94-37.38 792.15-37.38 791.98-37.35L791.98-37.35 791.88-37.79Q795.86-38.99 799.28-38.99L799.28-38.99Q799.79-37.7 799.79-36.21L799.79-36.21 799.79-21.9Q801.47-23.05 802.85-23.79 804.23-24.54 805.44-24.98 806.65-25.42 807.74-25.59 808.82-25.76 809.95-25.76L809.95-25.76Q811.48-25.76 812.77-25.35 814.05-24.95 814.98-24.04 815.9-23.12 816.47-21.63 817.03-20.14 817.12-17.94L817.12-17.94 817.12-2.76Q817.12-2.17 817.41-1.78 817.69-1.39 818.14-1.12 818.59-0.85 819.18-0.67 819.76-0.49 820.4-0.29L820.4-0.29 820.18 0.29Q818.81 0 816.98 0 815.15 0 813.29 0.39L813.29 0.39 813.14 0.15Q813.63-0.56 813.63-2.44L813.63-2.44ZM828.28-2.44L828.28-18.09Q828.28-21.56 827.46-22.74 826.64-23.93 823.98-23.75L823.98-23.75 823.88-24.19Q827.91-25.39 831.28-25.39L831.28-25.39Q831.79-24.12 831.79-22.61L831.79-22.61 831.79-4.39Q831.79-2.47 832.7-1.54 833.6-0.61 835.9-0.2L835.9-0.2 835.7 0.39Q832.89 0 831.37 0 829.84 0 827.94 0.39L827.94 0.39 827.79 0.15Q828.28-0.56 828.28-2.44L828.28-2.44ZM825.79-34.45L825.79-34.45Q828.11-35.79 831.04-36.69L831.04-36.69Q831.04-34.67 831.7-32.69L831.7-32.69 831.38-32.25Q829.06-32.1 826.55-30.96L826.55-30.96Q825.94-32.64 825.79-34.45ZM839.39-18.36L841.19-24.61 841.58-24.95Q845.46-24.66 855.89-24.66L855.89-24.66 859.04-24.8 859.28-24.1 844.39-1.81 851.81-1.59Q853.23-1.59 854.51-1.87 855.79-2.15 856.85-2.76 857.92-3.37 858.72-4.31 859.53-5.25 859.99-6.54L859.99-6.54 860.6-6.25 858.18 0 857.79 0.34Q857.3 0.29 856.34 0.26 855.38 0.22 854.13 0.18 852.89 0.15 851.45 0.12 850.01 0.1 846.1 0.06 842.19 0.02 841.45 0.01 840.7 0 840.48 0L840.48 0 840.24-2.2Q841.66-3.39 845.26-8.54 848.86-13.7 854.69-22.8L854.69-22.8Q853.01-22.9 851.58-22.94 850.15-22.97 848.93-22.97L848.93-22.97Q847.03-22.97 845.7-22.8 844.37-22.63 843.36-22.11 842.36-21.58 841.58-20.61 840.8-19.63 840-18.04L840-18.04 839.39-18.36ZM865.33-11.89L865.33-11.89Q865.33-14.48 866.19-16.91 867.04-19.34 868.63-21.23 870.22-23.12 872.48-24.26 874.73-25.39 877.54-25.39L877.54-25.39Q879.3-25.39 880.86-24.79 882.42-24.19 883.58-22.94 884.74-21.68 885.42-19.71 886.09-17.75 886.09-15.04L886.09-15.04 885.13-14.16 869.19-14.16Q869.14-13.75 869.14-13.35 869.14-12.96 869.14-12.57L869.14-12.57Q869.14-9.91 869.77-7.74 870.39-5.57 871.45-4.02 872.51-2.47 873.95-1.61 875.39-0.76 877-0.76L877-0.76Q878.03-0.76 879.09-0.92 880.15-1.07 881.17-1.42 882.18-1.76 883.13-2.29 884.08-2.83 884.89-3.59L884.89-3.59 885.89-2.54Q883.96-0.63 881.69 0.18 879.42 1 876.44 1L876.44 1Q874.1 1 872.06 0.1 870.02-0.81 868.53-2.49 867.04-4.17 866.19-6.56 865.33-8.94 865.33-11.89ZM877-23.71L877-23.71Q873.22-23.71 871.46-21.74 869.7-19.78 869.34-16.09L869.34-16.09 882.94-16.09Q882.74-20.09 881.14-21.9 879.54-23.71 877-23.71Z" opacity="1" transform="matrix(1,0,0,1,0,0)" fill="#ffffff" class="undefined-text-1" data-fill-palette-color="secondary" id="text-1"></path></svg></g></svg></g></svg></g></svg></g><g transform="matrix(1,0,0,1,87.07717122395324,0)"><svg viewBox="0 0 221.3656575520935 114.54701128693853" height="114.54701128693853" width="221.3656575520935"><g><svg xmlns="http://www.w3.org/2000/svg" xmlns:xlink="http://www.w3.org/1999/xlink" version="1.1" x="8" y="0" viewBox="4.286367056042609 24.487000000000002 92.48816548185864 51.587217948898505" enable-background="new 0 0 100 100" xml:space="preserve" height="114.54701128693853" width="205.3656575520935" class="icon-icon-0" data-fill-palette-color="accent" id="icon-0"><path d="M96.562 62.695l-0.311-2.181c-0.3-1.686-0.748-3.259-1.427-4.512-2.527-4.664-21.781-29.054-27.316-30.636-0.926-0.265-3.389-0.879-6.28-0.879-3.969 0-7.205 1.159-9.361 3.353-1.945 1.979-3 4.738-3.141 8.214-2.732 1.249-9.46 4.648-11.314 8.562-0.935 1.974-4.817 3.736-7.937 5.154-2.51 1.14-4.678 2.125-6.004 3.35-0.712 0.657-1.678 1.634-2.792 2.762-3.172 3.21-7.966 8.062-10.814 9.262-3.224 1.357-5.355 3.561-5.563 5.751-0.111 1.173 0.374 2.242 1.299 2.858 1.666 1.11 7.711 1.94 12.003 1.94 0.905 0 1.779-0.034 2.592-0.106 2.44-0.223 11.275-0.403 19.694-0.403 10.072 0 14.617 0.246 15.45 0.457 1.746 0.442 3.311 0.419 5.603 0.246 1.5-0.11 3.247-0.239 5.825-0.193 2.647 0.052 5.091 0.155 7.103 0.242 1.79 0.075 3.245 0.138 4.214 0.138 0.651 0 1.066-0.026 1.351-0.079 0.105-0.013 0.645-0.056 3.195-0.056 4.563 0 11.933 0.135 11.937 0.135 0.965 0.014 1.668-0.648 1.782-1.544C96.394 74.171 97.126 68.229 96.562 62.695zM46.117 46.308c3.599-0.917 6.888-0.204 7.346 1.596 0.458 1.797-2.085 4.002-5.683 4.918-3.599 0.917-6.887 0.204-7.346-1.596C39.977 49.429 42.521 47.226 46.117 46.308zM28.83 55.225c3.478-0.294 6.408 0.98 6.544 2.85 0.139 1.868-2.568 3.627-6.044 3.921-3.478 0.295-6.408-0.98-6.544-2.851C22.649 57.276 25.354 55.521 28.83 55.225zM68.728 71.552c-0.099 0.214-0.146 0.436-0.153 0.656-0.569-0.016-1.146-0.03-1.737-0.043-0.409-0.007-0.797-0.01-1.169-0.01-2.137 0-3.719 0.118-4.989 0.213-1.832 0.139-3.095 0.2-4.474-0.147-1.843-0.468-9.89-0.565-16.315-0.565-8.652 0-17.443 0.183-20.014 0.417-0.599 0.055-1.252 0.072-1.912 0.079 6.599-2.576 14.378-5.079 16.664-4.546 1.353 0.322 2.363 0.663 3.255 0.963 2.088 0.705 3.741 1.262 6.725 0.329 0.837-0.262 1.699-0.604 2.57-0.954 3.061-1.224 5.039-1.884 6.7-0.719 3.797 2.659 6.9 2.202 9.901 1.768l0.234-0.032c2.237-0.328 4.478-0.024 4.998 0.672C69.246 69.945 69.143 70.646 68.728 71.552zM63.599 61.02c-4.466 0.331-8.229-1.068-8.409-3.131-0.181-2.062 3.292-4.004 7.756-4.336 4.464-0.335 8.23 1.068 8.41 3.13C71.536 58.743 68.063 60.688 63.599 61.02zM77.548 58.425c-0.728-2.467-1.829-4.981-3.479-6.277-4.092-3.216-9.187-7.505-11.213-9.899-0.269-0.317-5.652-6.588-10.517-7.036 0.231-2.092 0.908-3.74 2.046-4.897 1.866-1.898 4.752-2.297 6.844-2.297 2.447 0 4.527 0.52 5.309 0.742 3.187 0.91 17.306 17.467 23.131 25.74-1.961-0.796-4.229-1.003-6.721-0.068C80.421 55.379 78.722 56.739 77.548 58.425zM93.012 72.517c-2.44-0.038-7.121-0.106-10.382-0.106-2.964 0-3.498 0.054-3.79 0.106-0.136 0.021-0.346 0.031-0.608 0.035 0.013-0.229 0.026-0.475 0.036-0.7 0.409-8.403 0.806-12.198 5.92-14.114 4.326-1.626 7.479 2.22 8.7 4.07C93.412 65.382 93.255 69.749 93.012 72.517z" fill="#ffffff" data-fill-palette-color="accent"></path></svg></g></svg></g><g><rect width="87.07717122395324" height="4.969648312410586" y="108.57736297452794" x="308.4428287760467" fill="#ffffff" data-fill-palette-color="accent"></rect><rect width="87.07717122395324" height="4.969648312410586" y="108.57736297452794" x="0" fill="#ffffff" data-fill-palette-color="accent"></rect><rect width="87.07717122395324" height="4.969648312410586" y="98.63806634970678" x="308.4428287760467" fill="#ffffff" data-fill-palette-color="accent"></rect><rect width="87.07717122395324" height="4.969648312410586" y="98.63806634970678" x="0" fill="#ffffff" data-fill-palette-color="accent"></rect></g></svg></g><defs></defs></svg><rect width="395.52" height="210.44151935886165" fill="none" stroke="none" visibility="hidden"></rect></g></svg></g></svg>